<svg width="21" height="21" viewBox="0 0 21 21" fill="none" xmlns="http://www.w3.org/2000/svg">
<path d="M8.77269 1C7.2354 1 5.73263 1.45586 4.45442 2.30993C3.17621 3.16401 2.17996 4.37794 1.59166 5.79821C1.00337 7.21848 0.849443 8.78131 1.14935 10.2891C1.44926 11.7968 2.18954 13.1818 3.27657 14.2688C4.3636 15.3558 5.74856 16.0961 7.25632 16.396C8.76407 16.6959 10.3269 16.542 11.7472 15.9537C13.1674 15.3654 14.3814 14.3692 15.2354 13.091C16.0895 11.8127 16.5454 10.31 16.5454 8.77269C16.5452 6.71128 15.7263 4.73435 14.2687 3.27671C12.811 1.81908 10.8341 1.00013 8.77269 1Z" stroke="black" stroke-miterlimit="10"/>
<path d="M14.5718 14.5718L20.0001 20.0001" stroke="black" stroke-miterlimit="10" stroke-linecap="round"/>
</svg>
