<svg width="231" height="56" viewBox="0 0 231 56" fill="none" xmlns="http://www.w3.org/2000/svg">
<path d="M78.865 22.0638L78.305 26.4738H72.32V46.3188H66.58V26.4738H60.315V22.0638H78.865ZM91.9564 27.1388C93.5664 27.1388 94.8264 27.6288 95.7364 28.6088C96.6464 29.5888 97.1014 30.9655 97.1014 32.7388V46.3188H91.5714V33.6838C91.5714 32.7505 91.4197 32.1088 91.1164 31.7588C90.813 31.3855 90.3814 31.1988 89.8214 31.1988C88.7014 31.1988 87.628 31.9922 86.6014 33.5788V46.3188H81.0714V20.3488L86.6014 19.7888V29.7288C87.3714 28.8655 88.188 28.2238 89.0514 27.8038C89.9147 27.3605 90.883 27.1388 91.9564 27.1388ZM111.352 27.2088C112.028 27.2088 112.647 27.2905 113.207 27.4538L112.332 32.8088C111.632 32.6455 111.072 32.5638 110.652 32.5638C109.555 32.5638 108.715 32.9488 108.132 33.7188C107.572 34.4655 107.128 35.5972 106.802 37.1138V46.3188H101.272V27.7338H106.102L106.557 31.3388C106.977 30.0555 107.607 29.0522 108.447 28.3288C109.31 27.5822 110.278 27.2088 111.352 27.2088ZM120.849 27.7338V46.3188H115.319V27.7338H120.849ZM118.049 17.9338C119.006 17.9338 119.788 18.2372 120.394 18.8438C121.024 19.4272 121.339 20.1738 121.339 21.0838C121.339 21.9938 121.024 22.7522 120.394 23.3588C119.788 23.9422 119.006 24.2338 118.049 24.2338C117.093 24.2338 116.311 23.9422 115.704 23.3588C115.098 22.7522 114.794 21.9938 114.794 21.0838C114.794 20.1738 115.098 19.4272 115.704 18.8438C116.311 18.2372 117.093 17.9338 118.049 17.9338ZM130.132 46.9138C128.522 46.9138 127.262 46.4588 126.352 45.5488C125.466 44.6155 125.022 43.2972 125.022 41.5938V20.3488L130.552 19.7538V41.3838C130.552 42.1538 130.867 42.5388 131.497 42.5388C131.824 42.5388 132.127 42.4805 132.407 42.3638L133.492 46.2838C132.489 46.7038 131.369 46.9138 130.132 46.9138ZM140.523 46.9138C138.913 46.9138 137.653 46.4588 136.743 45.5488C135.856 44.6155 135.413 43.2972 135.413 41.5938V20.3488L140.943 19.7538V41.3838C140.943 42.1538 141.258 42.5388 141.888 42.5388C142.215 42.5388 142.518 42.4805 142.798 42.3638L143.883 46.2838C142.88 46.7038 141.76 46.9138 140.523 46.9138ZM161.632 27.7338L155.787 46.3188H149.242L143.257 27.7338H149.277L152.567 42.1188L155.997 27.7338H161.632ZM179.513 36.6588C179.513 37.4288 179.478 38.0938 179.408 38.6538H167.893C168.079 40.2172 168.523 41.3138 169.223 41.9438C169.923 42.5738 170.891 42.8888 172.128 42.8888C172.874 42.8888 173.598 42.7605 174.298 42.5038C174.998 42.2238 175.756 41.8038 176.573 41.2438L178.848 44.3238C176.678 46.0505 174.263 46.9138 171.603 46.9138C168.593 46.9138 166.283 46.0272 164.673 44.2538C163.063 42.4805 162.258 40.1005 162.258 37.1138C162.258 35.2238 162.596 33.5322 163.273 32.0388C163.949 30.5222 164.941 29.3322 166.248 28.4688C167.554 27.5822 169.118 27.1388 170.938 27.1388C173.621 27.1388 175.721 27.9788 177.238 29.6588C178.754 31.3388 179.513 33.6722 179.513 36.6588ZM174.088 35.0838C174.041 32.2372 173.038 30.8138 171.078 30.8138C170.121 30.8138 169.374 31.1638 168.838 31.8638C168.324 32.5638 168.009 33.7188 167.893 35.3288H174.088V35.0838ZM192.699 27.2088C193.376 27.2088 193.994 27.2905 194.554 27.4538L193.679 32.8088C192.979 32.6455 192.419 32.5638 191.999 32.5638C190.903 32.5638 190.063 32.9488 189.479 33.7188C188.919 34.4655 188.476 35.5972 188.149 37.1138V46.3188H182.619V27.7338H187.449L187.904 31.3388C188.324 30.0555 188.954 29.0522 189.794 28.3288C190.658 27.5822 191.626 27.2088 192.699 27.2088ZM202.802 27.1388C204.132 27.1388 205.38 27.3372 206.547 27.7338C207.714 28.1305 208.74 28.6905 209.627 29.4138L207.597 32.5288C206.08 31.5722 204.552 31.0938 203.012 31.0938C202.289 31.0938 201.729 31.2222 201.332 31.4788C200.959 31.7122 200.772 32.0505 200.772 32.4938C200.772 32.8438 200.854 33.1355 201.017 33.3688C201.204 33.5788 201.565 33.8005 202.102 34.0338C202.639 34.2672 203.467 34.5472 204.587 34.8738C206.524 35.4338 207.959 36.1688 208.892 37.0788C209.849 37.9655 210.327 39.2022 210.327 40.7888C210.327 42.0488 209.965 43.1455 209.242 44.0788C208.519 44.9888 207.527 45.6888 206.267 46.1788C205.007 46.6688 203.607 46.9138 202.067 46.9138C200.504 46.9138 199.045 46.6688 197.692 46.1788C196.362 45.6888 195.23 45.0122 194.297 44.1488L196.992 41.1388C198.555 42.3522 200.2 42.9588 201.927 42.9588C202.767 42.9588 203.42 42.8072 203.887 42.5038C204.377 42.2005 204.622 41.7688 204.622 41.2088C204.622 40.7655 204.529 40.4155 204.342 40.1588C204.155 39.9022 203.794 39.6688 203.257 39.4588C202.72 39.2255 201.869 38.9455 200.702 38.6188C198.859 38.0822 197.482 37.3355 196.572 36.3788C195.662 35.4222 195.207 34.2322 195.207 32.8088C195.207 31.7355 195.51 30.7788 196.117 29.9388C196.747 29.0755 197.634 28.3988 198.777 27.9088C199.944 27.3955 201.285 27.1388 202.802 27.1388ZM229.381 36.6588C229.381 37.4288 229.346 38.0938 229.276 38.6538H217.761C217.948 40.2172 218.391 41.3138 219.091 41.9438C219.791 42.5738 220.759 42.8888 221.996 42.8888C222.743 42.8888 223.466 42.7605 224.166 42.5038C224.866 42.2238 225.624 41.8038 226.441 41.2438L228.716 44.3238C226.546 46.0505 224.131 46.9138 221.471 46.9138C218.461 46.9138 216.151 46.0272 214.541 44.2538C212.931 42.4805 212.126 40.1005 212.126 37.1138C212.126 35.2238 212.464 33.5322 213.141 32.0388C213.818 30.5222 214.809 29.3322 216.116 28.4688C217.423 27.5822 218.986 27.1388 220.806 27.1388C223.489 27.1388 225.589 27.9788 227.106 29.6588C228.623 31.3388 229.381 33.6722 229.381 36.6588ZM223.956 35.0838C223.909 32.2372 222.906 30.8138 220.946 30.8138C219.989 30.8138 219.243 31.1638 218.706 31.8638C218.193 32.5638 217.878 33.7188 217.761 35.3288H223.956V35.0838Z" fill="white"/>
<path fill-rule="evenodd" clip-rule="evenodd" d="M37.5631 12.154C38.8236 10.4188 40.4859 9.01486 42.4075 8.0623C42.8767 7.75822 43.2174 7.29187 43.3645 6.75239C43.5115 6.21292 43.4545 5.63818 43.2045 5.13806C42.9544 4.63794 42.5288 4.24752 42.009 4.04146C41.4892 3.83539 40.9117 3.82815 40.3869 4.02109C37.814 5.29302 35.5883 7.17035 33.9007 9.49189C32.213 11.8427 31.1084 14.5611 30.6779 17.4228C30.1604 20.8112 30.4972 24.2753 31.6579 27.5005C31.7488 27.7481 31.8498 28.0057 31.9508 28.2431C31.8246 28.137 31.6932 28.0259 31.572 27.9148C29.61 26.1179 28.0295 23.9447 26.9246 21.5246C25.4633 18.4625 24.9936 15.0209 25.5809 11.6792C26.1322 8.6674 27.7563 5.95746 30.1525 4.0514C30.3867 3.86731 30.5823 3.6389 30.7282 3.37921C30.8741 3.11953 30.9674 2.83365 31.0028 2.5379C31.0382 2.24215 31.0151 1.94231 30.9346 1.65552C30.8541 1.36873 30.718 1.10059 30.5339 0.866421C30.3498 0.632249 30.1214 0.436624 29.8617 0.290725C29.602 0.144826 29.3161 0.0515043 29.0204 0.016089C28.7246 -0.0193263 28.4248 0.00385994 28.138 0.0843202C27.8512 0.164781 27.5831 0.300942 27.3489 0.485029C24.0889 3.06591 21.8758 6.74179 21.1204 10.8305C20.3532 15.088 20.936 19.4788 22.7874 23.3886C23.8129 25.6336 25.1757 27.7085 26.8286 29.5414C25.9532 29.066 25.1095 28.5345 24.3028 27.9501C20.4628 25.184 17.643 21.2278 16.281 16.6953C15.1394 12.6541 15.4879 8.5624 17.5995 5.35974C17.929 4.85801 18.0458 4.2459 17.9241 3.65807C17.8024 3.07025 17.4521 2.55486 16.9504 2.22528C16.4486 1.8957 15.8365 1.77893 15.2487 1.90067C14.6609 2.0224 14.1455 2.37267 13.8159 2.8744C10.9416 7.23891 10.4263 12.6693 11.9115 17.9229C13.0974 21.9769 15.2725 25.6726 18.241 28.6775C17.6399 28.3896 17.059 28.0865 16.5033 27.7683C10.4011 24.3029 6.65285 19.3322 5.93553 15.4325C5.8818 15.1399 5.77096 14.8608 5.60936 14.6111C5.44776 14.3614 5.23857 14.1459 4.99371 13.9771C4.74885 13.8082 4.47314 13.6892 4.1823 13.6269C3.89146 13.5646 3.59117 13.5602 3.29862 13.6139C3.00608 13.6677 2.72698 13.7785 2.47726 13.9401C2.22754 14.1017 2.0121 14.3109 1.84323 14.5557C1.67436 14.8006 1.55538 15.0763 1.49307 15.3672C1.43076 15.658 1.42636 15.9583 1.48009 16.2508C2.40957 21.3023 6.95593 27.5612 14.2655 31.7135C19.9686 34.9016 26.4245 36.4964 32.9561 36.3306C34.4523 36.5375 35.9665 36.5815 37.4722 36.4619C37.6339 36.5966 37.8142 36.7072 38.0076 36.7903L38.149 41.8418C38.149 41.9883 38.149 41.7408 38.149 41.9883C38.1796 42.9033 37.8822 43.799 37.3105 44.5141C37.0511 44.8079 36.7324 45.0435 36.3755 45.2055C36.0185 45.3674 35.6314 45.452 35.2394 45.4536C35.1333 45.4536 35.3859 45.4536 35.1484 45.4536H2.27318C1.6703 45.4536 1.09209 45.6931 0.665787 46.1194C0.239482 46.5457 0 47.1239 0 47.7268C0 48.3297 0.239482 48.9079 0.665787 49.3342C1.09209 49.7605 1.6703 50 2.27318 50H35.1333C35.2747 50 35.0878 50 35.3404 50C36.3649 49.984 37.3743 49.7506 38.3017 49.3152C39.2292 48.8797 40.0536 48.2522 40.7203 47.4742C42.0157 45.9419 42.7167 43.9947 42.6954 41.9883C42.6954 41.8772 42.6954 41.9883 42.6954 41.7206L42.4984 34.6484C42.4906 34.3512 42.4242 34.0585 42.3032 33.7869C42.1821 33.5153 42.0087 33.2703 41.793 33.0657C41.5772 32.8612 41.3232 32.7012 41.0455 32.5948C40.7678 32.4885 40.4719 32.4379 40.1747 32.446C40.0728 32.4513 39.9714 32.4648 39.8716 32.4864C38.1237 30.6145 36.7791 28.4033 35.9213 25.9901C35.0062 23.4718 34.7353 20.7646 35.1333 18.1148C35.4581 15.9631 36.2911 13.9197 37.5631 12.154Z" fill="white"/>
<path fill-rule="evenodd" clip-rule="evenodd" d="M3.4906 39.6496C3.18915 39.6496 2.90005 39.5299 2.6869 39.3168C2.47374 39.1036 2.354 38.8145 2.354 38.5131C2.354 38.2116 2.47374 37.9225 2.6869 37.7094C2.90005 37.4962 3.18915 37.3765 3.4906 37.3765H35.6738C35.9753 37.3765 36.2644 37.4962 36.4775 37.7094C36.6907 37.9225 36.8104 38.2116 36.8104 38.5131C36.8104 38.8145 36.6907 39.1036 36.4775 39.3168C36.2644 39.5299 35.9753 39.6496 35.6738 39.6496H3.4906Z" fill="white"/>
<path fill-rule="evenodd" clip-rule="evenodd" d="M3.4906 43.7009C3.18915 43.7009 2.90005 43.5812 2.6869 43.368C2.47374 43.1549 2.354 42.8658 2.354 42.5643C2.354 42.2629 2.47374 41.9738 2.6869 41.7606C2.90005 41.5475 3.18915 41.4277 3.4906 41.4277H35.6738C35.9753 41.4277 36.2644 41.5475 36.4775 41.7606C36.6907 41.9738 36.8104 42.2629 36.8104 42.5643C36.8104 42.8658 36.6907 43.1549 36.4775 43.368C36.2644 43.5812 35.9753 43.7009 35.6738 43.7009H3.4906Z" fill="white"/>
</svg>
